<mxfile host="app.diagrams.net" modified="2024-02-19T17:12:18.972Z" agent="Mozilla/5.0 (X11; Linux x86_64) AppleWebKit/537.36 (KHTML, like Gecko) Chrome/121.0.0.0 Safari/537.36" etag="TBd7G5QV3w7MQVu8MTKN" version="23.1.5" type="github">
  <diagram name="Page-1" id="rHpFxpJIeKJyoYEt7b_M">
    <mxGraphModel dx="2298" dy="1103" grid="1" gridSize="10" guides="1" tooltips="1" connect="1" arrows="1" fold="1" page="1" pageScale="1" pageWidth="850" pageHeight="1100" math="0" shadow="0">
      <root>
        <mxCell id="0" />
        <mxCell id="1" parent="0" />
        <mxCell id="BotcEl2V68ZvkaFEKR-n-1" value="map_editor:MapEditor" style="shape=umlLifeline;perimeter=lifelinePerimeter;whiteSpace=wrap;html=1;container=1;dropTarget=0;collapsible=0;recursiveResize=0;outlineConnect=0;portConstraint=eastwest;newEdgeStyle={&quot;curved&quot;:0,&quot;rounded&quot;:0};" parent="1" vertex="1">
          <mxGeometry x="70" y="40" width="130" height="160" as="geometry" />
        </mxCell>
        <mxCell id="BotcEl2V68ZvkaFEKR-n-5" value="" style="html=1;points=[[0,0,0,0,5],[0,1,0,0,-5],[1,0,0,0,5],[1,1,0,0,-5]];perimeter=orthogonalPerimeter;outlineConnect=0;targetShapes=umlLifeline;portConstraint=eastwest;newEdgeStyle={&quot;curved&quot;:0,&quot;rounded&quot;:0};" parent="BotcEl2V68ZvkaFEKR-n-1" vertex="1">
          <mxGeometry x="60" y="70" width="10" height="50" as="geometry" />
        </mxCell>
        <mxCell id="BotcEl2V68ZvkaFEKR-n-2" value="gt_command:GtCommandSubject" style="shape=umlLifeline;perimeter=lifelinePerimeter;whiteSpace=wrap;html=1;container=1;dropTarget=0;collapsible=0;recursiveResize=0;outlineConnect=0;portConstraint=eastwest;newEdgeStyle={&quot;curved&quot;:0,&quot;rounded&quot;:0};" parent="1" vertex="1">
          <mxGeometry x="210" y="40" width="190" height="160" as="geometry" />
        </mxCell>
        <mxCell id="BotcEl2V68ZvkaFEKR-n-6" value="" style="html=1;points=[[0,0,0,0,5],[0,1,0,0,-5],[1,0,0,0,5],[1,1,0,0,-5]];perimeter=orthogonalPerimeter;outlineConnect=0;targetShapes=umlLifeline;portConstraint=eastwest;newEdgeStyle={&quot;curved&quot;:0,&quot;rounded&quot;:0};" parent="BotcEl2V68ZvkaFEKR-n-2" vertex="1">
          <mxGeometry x="90" y="70" width="10" height="20" as="geometry" />
        </mxCell>
        <mxCell id="BotcEl2V68ZvkaFEKR-n-3" value="ecos:EcosSubject" style="shape=umlLifeline;perimeter=lifelinePerimeter;whiteSpace=wrap;html=1;container=1;dropTarget=0;collapsible=0;recursiveResize=0;outlineConnect=0;portConstraint=eastwest;newEdgeStyle={&quot;curved&quot;:0,&quot;rounded&quot;:0};" parent="1" vertex="1">
          <mxGeometry x="410" y="40" width="100" height="160" as="geometry" />
        </mxCell>
        <mxCell id="BotcEl2V68ZvkaFEKR-n-7" value="" style="html=1;points=[[0,0,0,0,5],[0,1,0,0,-5],[1,0,0,0,5],[1,1,0,0,-5]];perimeter=orthogonalPerimeter;outlineConnect=0;targetShapes=umlLifeline;portConstraint=eastwest;newEdgeStyle={&quot;curved&quot;:0,&quot;rounded&quot;:0};" parent="BotcEl2V68ZvkaFEKR-n-3" vertex="1">
          <mxGeometry x="45" y="100" width="10" height="20" as="geometry" />
        </mxCell>
        <mxCell id="BotcEl2V68ZvkaFEKR-n-4" value="register_observers()" style="html=1;verticalAlign=bottom;startArrow=oval;startFill=1;endArrow=block;startSize=8;curved=0;rounded=0;" parent="1" target="BotcEl2V68ZvkaFEKR-n-5" edge="1">
          <mxGeometry width="60" relative="1" as="geometry">
            <mxPoint x="20" y="120" as="sourcePoint" />
            <mxPoint x="130" y="129.5" as="targetPoint" />
            <Array as="points">
              <mxPoint x="80" y="120" />
            </Array>
          </mxGeometry>
        </mxCell>
        <mxCell id="BotcEl2V68ZvkaFEKR-n-9" value="attach(TsHitObserver)" style="html=1;verticalAlign=bottom;endArrow=block;curved=0;rounded=0;" parent="1" source="BotcEl2V68ZvkaFEKR-n-5" target="BotcEl2V68ZvkaFEKR-n-6" edge="1">
          <mxGeometry width="80" relative="1" as="geometry">
            <mxPoint x="180" y="130" as="sourcePoint" />
            <mxPoint x="260" y="130" as="targetPoint" />
            <Array as="points">
              <mxPoint x="220" y="120" />
            </Array>
          </mxGeometry>
        </mxCell>
        <mxCell id="BotcEl2V68ZvkaFEKR-n-10" value="attach(EcosObserver)" style="html=1;verticalAlign=bottom;endArrow=block;curved=0;rounded=0;" parent="1" source="BotcEl2V68ZvkaFEKR-n-5" target="BotcEl2V68ZvkaFEKR-n-7" edge="1">
          <mxGeometry width="80" relative="1" as="geometry">
            <mxPoint x="190" y="150" as="sourcePoint" />
            <mxPoint x="270" y="150" as="targetPoint" />
            <Array as="points">
              <mxPoint x="300" y="150" />
            </Array>
          </mxGeometry>
        </mxCell>
        <mxCell id="BotcEl2V68ZvkaFEKR-n-11" value="main-thread" style="shape=umlFrame;whiteSpace=wrap;html=1;pointerEvents=0;width=100;height=20;" parent="1" vertex="1">
          <mxGeometry x="10" y="10" width="540" height="190" as="geometry" />
        </mxCell>
      </root>
    </mxGraphModel>
  </diagram>
</mxfile>
